<svg xmlns="http://www.w3.org/2000/svg" x="0px" y="0px" width="100" height="100" viewBox="0 0 80 80">
<path d="M 36.628906 7.0019531 C 35.603376 7.0394724 34.577953 7.4380094 33.609375 8.0585938 C 32.317937 8.8860395 31.073928 10.126821 29.894531 11.666016 C 27.658697 14.583936 25.668151 18.599469 24.375 23.003906 L 16.769531 25.490234 A 1.0001 1.0001 0 0 0 16.087891 26.3125 L 11.007812 65.955078 A 1.0001 1.0001 0 0 0 11.8125 67.064453 L 48.041016 73.982422 A 1.0001546 1.0001546 0 0 0 48.164062 73.996094 A 1.0001 1.0001 0 0 0 48.707031 73.943359 L 68.216797 69.611328 A 1.0001 1.0001 0 0 0 68.990234 68.492188 C 68.990234 68.492188 67.267629 56.507182 65.541016 44.478516 C 64.677709 38.464182 63.813039 32.439352 63.162109 27.896484 C 62.836645 25.625051 62.564886 23.724404 62.373047 22.380859 C 62.277127 21.709087 62.200834 21.176078 62.148438 20.806641 C 62.122237 20.621922 62.101861 20.47862 62.087891 20.378906 C 62.073921 20.279196 62.058429 20.147925 62.068359 20.240234 A 1.0001 1.0001 0 0 0 61.992188 19.951172 C 61.716963 19.316322 61.147259 18.959312 60.765625 18.828125 A 1.0001 1.0001 0 0 0 60.441406 18.773438 C 60.555891 18.773438 60.375826 18.770036 60.224609 18.759766 C 60.07339 18.749536 59.866315 18.734677 59.623047 18.716797 C 59.13651 18.681047 58.505743 18.631817 57.882812 18.583984 C 56.825671 18.502814 56.082985 18.444612 55.792969 18.421875 C 55.590105 18.21339 55.07248 17.681896 54.308594 16.904297 C 53.858314 16.445933 53.394731 15.976715 53.015625 15.597656 C 52.666491 15.248566 52.457528 15.034987 52.253906 14.857422 L 52.25 14.855469 C 51.99794 14.601021 51.7074 14.426399 51.357422 14.361328 A 1.0001 1.0001 0 0 0 51.091797 14.316406 A 1.0001 1.0001 0 0 0 50.607422 14.425781 L 47.625 15.400391 C 47.230606 13.707452 46.657673 12.24241 45.861328 11.091797 C 45.037953 9.9021276 43.938753 9.0275947 42.613281 8.7421875 C 41.899742 8.5888179 41.183913 8.6692103 40.494141 8.8867188 C 39.718168 7.9780885 38.771583 7.3302987 37.654297 7.0898438 L 37.652344 7.0898438 C 37.312565 7.0169388 36.97075 6.9894467 36.628906 7.0019531 z M 36.689453 9.0019531 C 36.88092 8.9938492 37.062451 9.0084518 37.232422 9.0449219 C 37.734254 9.1529229 38.210996 9.4198067 38.658203 9.8457031 C 37.884726 10.420674 37.154022 11.163676 36.451172 12.044922 C 34.712729 14.224611 33.138463 17.239037 31.830078 20.564453 L 26.705078 22.242188 C 27.930415 18.581158 29.654682 15.266188 31.482422 12.880859 C 32.561526 11.472554 33.676438 10.391945 34.6875 9.7441406 C 35.445797 9.2582875 36.115053 9.0262649 36.689453 9.0019531 z M 41.769531 10.652344 C 41.913782 10.651561 42.055118 10.667552 42.193359 10.697266 C 42.929887 10.855858 43.598172 11.336638 44.216797 12.230469 C 44.835421 13.1243 45.36185 14.416583 45.716797 16.003906 L 45.912109 15.960938 L 43.236328 16.835938 C 42.991387 14.433034 42.47347 12.330048 41.646484 10.666016 C 41.686909 10.663357 41.729706 10.65256 41.769531 10.652344 z M 39.820312 11.472656 C 39.821741 11.475462 39.822792 11.477657 39.824219 11.480469 C 40.561166 12.932158 41.08666 15.006899 41.296875 17.466797 L 41.308594 17.464844 L 34.34375 19.744141 C 35.461391 17.183499 36.726374 14.907004 38.013672 13.292969 C 38.626018 12.525198 39.241817 11.911548 39.820312 11.472656 z M 49.992188 16.732422 L 49.839844 19.943359 A 1.0001226 1.0001226 0 0 0 49.880859 20.273438 L 49.880859 20.275391 L 49.882812 20.277344 A 1.0001226 1.0001226 0 0 0 50.486328 20.923828 L 50.492188 20.929688 L 50.509766 20.933594 A 1.0001226 1.0001226 0 0 0 50.839844 20.990234 L 50.841797 20.990234 A 1.0001226 1.0001226 0 0 0 51.634766 20.591797 L 51.640625 20.589844 L 51.642578 20.583984 A 1.0001226 1.0001226 0 0 0 51.837891 20.037109 L 51.962891 17.376953 C 52.26016 17.675747 52.561281 17.977383 52.882812 18.304688 C 53.778753 19.216711 54.623047 20.087891 54.623047 20.087891 A 1.0001 1.0001 0 0 0 55.261719 20.386719 C 55.261719 20.386719 56.482329 20.482289 57.730469 20.578125 C 58.354538 20.626045 58.98585 20.674875 59.476562 20.710938 C 59.721919 20.728967 59.931532 20.743196 60.089844 20.753906 C 60.103924 20.754859 60.108974 20.754859 60.121094 20.755859 C 60.134244 20.849349 60.147749 20.945317 60.167969 21.087891 C 60.220539 21.458536 60.296613 21.990018 60.392578 22.662109 C 60.584508 24.006292 60.858105 25.908089 61.183594 28.179688 C 61.83457 32.722882 62.697228 38.747302 63.560547 44.761719 C 65.221175 56.330696 66.752738 66.994775 66.876953 67.859375 L 49.402344 71.740234 L 49.529297 69.046875 A 1.0001688 1.0001688 0 0 0 49.390625 68.488281 L 49.539062 67.654297 L 48.927734 67 L 48.580078 66.9375 L 47.779297 67.339844 L 47.621094 68.220703 L 47.755859 68.365234 A 1.0001688 1.0001688 0 0 0 47.53125 68.951172 L 47.396484 71.822266 L 13.111328 65.277344 L 17.992188 27.193359 L 49.992188 16.732422 z M 50.650391 22.986328 L 49.849609 23.388672 L 49.691406 24.269531 L 50.304688 24.923828 L 50.650391 24.986328 L 51.451172 24.585938 L 51.609375 23.703125 L 50.998047 23.048828 L 50.650391 22.986328 z M 50.462891 26.982422 L 49.662109 27.382812 L 49.503906 28.265625 L 50.115234 28.919922 L 50.462891 28.982422 L 51.263672 28.580078 L 51.421875 27.699219 L 50.808594 27.044922 L 50.462891 26.982422 z M 36.699219 29.117188 C 32.24463 29.120088 28.787057 30.672395 26.492188 33.068359 C 24.1952 35.466533 23.066406 38.665784 23.066406 41.888672 C 23.066406 45.782562 25.077635 48.001305 26.859375 49.533203 C 27.750245 50.299152 28.578828 50.936613 29.126953 51.5625 C 29.675078 52.188387 29.955078 52.731097 29.955078 53.546875 C 29.955078 53.842463 29.83329 54.260541 29.597656 54.542969 C 29.362023 54.825397 29.060053 55.029297 28.427734 55.029297 C 27.423013 55.029297 26.040496 54.419522 24.970703 53.751953 C 23.90091 53.084384 23.154297 52.421875 23.154297 52.421875 A 1.0001 1.0001 0 0 0 21.53125 52.886719 L 19.882812 58.453125 A 1.0001 1.0001 0 0 0 20.056641 59.355469 C 20.056641 59.355469 23.496574 63.649322 30.076172 63.650391 C 32.881964 63.650391 35.397215 62.540339 37.164062 60.580078 C 38.930912 58.619817 39.945312 55.840999 39.945312 52.570312 C 39.945312 48.317402 37.551391 45.703331 35.361328 43.929688 C 34.266297 43.042865 33.210091 42.32276 32.5 41.6875 C 31.789909 41.05224 31.517578 40.60197 31.517578 40.199219 C 31.517578 40.000101 31.558218 39.477788 31.878906 39.052734 C 32.199593 38.627681 32.803472 38.152344 34.474609 38.152344 C 36.696505 38.152344 38.648438 39.195312 38.648438 39.195312 A 1.0001 1.0001 0 0 0 40.080078 38.625 L 42.425781 31.367188 A 1.0001 1.0001 0 0 0 41.992188 30.205078 C 41.992188 30.205078 41.45013 29.884576 40.5625 29.617188 C 39.675752 29.350064 38.381733 29.098007 36.703125 29.117188 L 36.699219 29.117188 z M 50.273438 30.978516 L 49.472656 31.378906 L 49.314453 32.261719 L 49.927734 32.916016 L 50.273438 32.978516 L 51.076172 32.576172 L 51.232422 31.693359 L 50.621094 31.039062 L 50.273438 30.978516 z M 36.710938 31.117188 A 1.0001 1.0001 0 0 0 36.722656 31.117188 C 38.192609 31.099927 39.277755 31.318389 39.984375 31.53125 C 40.169075 31.58689 40.11094 31.583409 40.238281 31.630859 L 38.513672 36.970703 C 37.597517 36.591447 36.27718 36.152344 34.474609 36.152344 C 32.371746 36.152344 30.998016 36.90021 30.283203 37.847656 C 29.56839 38.795103 29.517578 39.796336 29.517578 40.199219 C 29.517578 41.450968 30.29781 42.401229 31.167969 43.179688 C 32.038128 43.958146 33.089594 44.664822 34.101562 45.484375 C 36.125501 47.123481 37.945312 49.039224 37.945312 52.570312 C 37.945312 55.430627 37.071636 57.693745 35.677734 59.240234 C 34.283832 60.786724 32.365379 61.650391 30.076172 61.650391 C 24.829008 61.649538 22.401354 58.91876 21.978516 58.417969 L 23.046875 54.814453 C 23.394475 55.077329 23.405548 55.133116 23.912109 55.449219 C 25.132317 56.210649 26.720456 57.029297 28.427734 57.029297 C 29.590415 57.029297 30.552696 56.519541 31.132812 55.824219 C 31.71293 55.128897 31.955078 54.306287 31.955078 53.546875 C 31.955078 52.200153 31.376375 51.095145 30.632812 50.246094 C 29.88925 49.397043 28.995443 48.730426 28.164062 48.015625 C 26.501303 46.586023 25.066406 45.139782 25.066406 41.888672 C 25.066406 39.131559 26.027283 36.443498 27.935547 34.451172 C 29.84381 32.458845 32.706475 31.117187 36.710938 31.117188 z M 50.085938 34.972656 L 49.285156 35.375 L 49.126953 36.255859 L 49.738281 36.912109 L 50.085938 36.972656 L 50.886719 36.572266 L 51.044922 35.689453 L 50.433594 35.035156 L 50.085938 34.972656 z M 49.898438 38.96875 L 49.095703 39.371094 L 48.939453 40.251953 L 49.550781 40.90625 L 49.898438 40.96875 L 50.699219 40.568359 L 50.857422 39.685547 L 50.244141 39.03125 L 49.898438 38.96875 z M 49.708984 42.964844 L 48.908203 43.365234 L 48.75 44.248047 L 49.363281 44.902344 L 49.708984 44.964844 L 50.509766 44.5625 L 50.667969 43.681641 L 50.056641 43.027344 L 49.708984 42.964844 z M 49.521484 46.960938 L 48.720703 47.361328 L 48.5625 48.244141 L 49.173828 48.898438 L 49.521484 48.960938 L 50.322266 48.558594 L 50.480469 47.675781 L 49.869141 47.021484 L 49.521484 46.960938 z M 49.332031 50.955078 L 48.53125 51.357422 L 48.373047 52.238281 L 48.986328 52.892578 L 49.332031 52.955078 L 50.134766 52.554688 L 50.291016 51.671875 L 49.679688 51.017578 L 49.332031 50.955078 z M 49.144531 54.951172 L 48.34375 55.353516 L 48.185547 56.234375 L 48.796875 56.888672 L 49.144531 56.951172 L 49.945312 56.548828 L 50.103516 55.667969 L 49.492188 55.013672 L 49.144531 54.951172 z M 48.957031 58.947266 L 48.15625 59.347656 L 47.998047 60.230469 L 48.609375 60.884766 L 48.957031 60.947266 L 49.757812 60.544922 L 49.916016 59.664062 L 49.302734 59.009766 L 48.957031 58.947266 z M 48.767578 62.941406 L 47.966797 63.34375 L 47.808594 64.226562 L 48.421875 64.880859 L 48.767578 64.941406 L 49.568359 64.541016 L 49.726562 63.658203 L 49.115234 63.003906 L 48.767578 62.941406 z"></path>
</svg>